
<svg width="140" height="139" xmlns="http://www.w3.org/2000/svg" xmlns:xlink="http://www.w3.org/1999/xlink" xml:space="preserve" overflow="hidden"><g transform="translate(-144 -77)"><g><g><g><g><path d="M192.438 125.438C188.865 125.438 185.969 128.334 185.969 131.906 185.969 135.479 188.865 138.375 192.438 138.375 196.01 138.375 198.906 135.479 198.906 131.906 198.906 128.334 196.01 125.438 192.438 125.438ZM192.438 134.062C191.247 134.062 190.281 133.097 190.281 131.906 190.281 130.715 191.247 129.75 192.438 129.75 193.628 129.75 194.594 130.715 194.594 131.906 194.594 133.097 193.628 134.062 192.438 134.062Z" fill="#FFFFFF" fill-rule="nonzero" fill-opacity="1"/><path d="M268.512 98.0876 266.936 97.8612C265.426 97.6432 264.027 96.9437 262.947 95.8667 257.129 90.049 247.958 89.2902 241.264 94.0727L234.995 98.5512C232.82 97.7972 230.534 97.4102 228.231 97.4062 225.545 97.4021 222.918 98.1969 220.684 99.6897 216.609 102.342 211.353 102.342 207.277 99.6897 205.054 98.2043 202.442 97.4098 199.769 97.4062 197.47 97.4114 195.188 97.7983 193.015 98.5512L186.736 94.0727C180.042 89.2902 170.871 90.049 165.053 95.8667 163.972 96.9441 162.572 97.6437 161.062 97.8612L159.488 98.0876C152.427 99.1261 147.186 105.169 147.156 112.306 147.147 115.765 148.522 119.085 150.975 121.524 151.292 121.841 151.47 122.27 151.469 122.718L151.469 126.947C151.452 130.86 154.611 134.046 158.524 134.062 159.483 134.067 160.433 133.876 161.316 133.502 160.521 136.499 160.11 139.586 160.094 142.688 160.097 146.37 162.435 149.645 165.916 150.847 163.481 158.917 162.246 167.302 162.25 175.732L162.25 179.805C162.251 184.124 163.426 188.362 165.648 192.066 168.142 196.2 172.612 198.734 177.441 198.75 181.518 198.753 185.384 196.934 187.981 193.791L192.918 195.438C194.672 196.025 196.266 197.011 197.574 198.319 200.61 201.367 204.738 203.075 209.041 203.062L218.959 203.062C223.264 203.077 227.395 201.368 230.433 198.319 231.741 197.013 233.335 196.028 235.088 195.442L240.026 193.795C242.622 196.935 246.485 198.752 250.559 198.75 255.388 198.734 259.858 196.2 262.352 192.066 264.574 188.362 265.749 184.124 265.75 179.805L265.75 175.732C265.754 167.302 264.519 158.917 262.084 150.847 265.565 149.645 267.903 146.37 267.906 142.688 267.89 139.586 267.479 136.499 266.684 133.502 270.287 135.027 274.445 133.343 275.971 129.739 276.345 128.856 276.535 127.906 276.531 126.947L276.531 122.718C276.53 122.27 276.708 121.841 277.025 121.524 279.478 119.085 280.853 115.765 280.844 112.306 280.814 105.169 275.573 99.1261 268.512 98.0876ZM160.15 129.278C158.866 130.142 157.124 129.802 156.259 128.518 155.947 128.054 155.78 127.506 155.781 126.947L155.781 122.718C155.786 121.126 155.153 119.598 154.024 118.475 152.383 116.842 151.463 114.621 151.469 112.306 151.495 107.317 155.159 103.095 160.094 102.366L161.668 102.15C164.105 101.794 166.362 100.659 168.102 98.9156 172.43 94.5893 179.251 94.0248 184.231 97.5809L188.556 100.679C187.502 101.35 186.512 102.114 185.596 102.963L184.535 103.946C179.598 100.25 172.599 101.256 168.903 106.193 168.773 106.366 168.648 106.543 168.529 106.723L162.612 115.616 166.2 118.009 172.128 109.117C174.131 106.08 178.156 105.134 181.303 106.961L171.843 115.734C168.45 118.909 165.691 122.7 163.712 126.904ZM233.719 191.341C231.327 192.139 229.154 193.481 227.369 195.261 225.143 197.499 222.115 198.755 218.959 198.75L209.041 198.75C205.885 198.755 202.857 197.499 200.631 195.261 198.849 193.482 196.678 192.14 194.29 191.341L190.223 189.985C190.339 189.687 190.484 189.407 190.579 189.099L193.671 179.201C197.182 167.969 209.133 161.71 220.365 165.221 227.037 167.306 232.261 172.53 234.346 179.201L237.438 189.099C237.535 189.407 237.678 189.687 237.794 189.985ZM215.602 149.156 212.398 149.156C210.835 149.156 209.282 148.904 207.799 148.41 205.941 147.79 204.938 145.783 205.558 143.925 205.732 143.405 206.024 142.932 206.412 142.543 207.697 141.251 209.446 140.526 211.268 140.531L216.732 140.531C218.554 140.526 220.303 141.251 221.588 142.543 222.971 143.928 222.97 146.173 221.585 147.556 221.197 147.944 220.724 148.236 220.204 148.41 218.72 148.904 217.166 149.156 215.602 149.156ZM260.338 146.853 259.439 145.506C257.476 142.565 254.782 140.187 251.62 138.606L249.692 142.465C252.183 143.711 254.305 145.585 255.851 147.901L257.315 150.099C260.046 158.369 261.438 167.023 261.438 175.732L261.438 179.805C261.438 183.345 260.476 186.818 258.654 189.853 255.973 194.325 250.175 195.776 245.703 193.095 243.716 191.904 242.236 190.023 241.546 187.811L238.454 177.914C235.376 167.955 226.546 160.872 216.156 160.028L216.156 153.423C217.995 153.382 219.818 153.072 221.566 152.501 225.682 151.129 227.906 146.68 226.534 142.564 226.149 141.408 225.499 140.356 224.637 139.494 222.545 137.39 219.699 136.211 216.732 136.219L211.268 136.219C208.301 136.211 205.455 137.39 203.363 139.494 200.296 142.562 200.296 147.535 203.363 150.603 204.226 151.465 205.277 152.115 206.434 152.501 208.182 153.072 210.005 153.382 211.844 153.423L211.844 160.028C201.451 160.873 192.62 167.961 189.546 177.925L186.454 187.822C184.901 192.799 179.607 195.574 174.63 194.021 172.418 193.331 170.538 191.851 169.346 189.864 167.522 186.826 166.56 183.349 166.562 179.805L166.562 175.732C166.561 166.994 167.961 158.313 170.709 150.019 171.954 147.575 173.805 145.491 176.085 143.966L178.54 142.33 176.147 138.742 173.693 140.378C171.206 142.052 169.12 144.257 167.587 146.834 165.714 146.325 164.413 144.628 164.406 142.688 164.419 133.665 168.175 125.052 174.778 118.904L188.541 106.122C191.59 103.284 195.604 101.71 199.769 101.719 201.6 101.717 203.391 102.26 204.914 103.278 210.443 106.881 217.578 106.881 223.108 103.278 224.624 102.264 226.407 101.721 228.231 101.719 232.391 101.714 236.398 103.288 239.444 106.122L253.222 118.904C259.825 125.052 263.581 133.665 263.594 142.688 263.587 144.657 262.247 146.371 260.338 146.853ZM273.976 118.475C272.847 119.598 272.214 121.126 272.219 122.718L272.219 126.947C272.225 128.495 270.974 129.755 269.426 129.761 268.866 129.763 268.318 129.597 267.852 129.284L264.288 126.912C262.31 122.705 259.551 118.912 256.157 115.734L246.697 106.958C249.844 105.132 253.869 106.078 255.872 109.115L261.8 118.007 265.388 115.614 259.46 106.721C256.057 101.578 249.128 100.167 243.985 103.57 243.805 103.69 243.628 103.814 243.454 103.944L242.393 102.961C241.481 102.113 240.494 101.35 239.444 100.679L243.78 97.5831C248.759 94.0255 255.581 94.5891 259.909 98.9156 261.65 100.651 263.905 101.778 266.339 102.131L267.913 102.346C272.852 103.076 276.517 107.305 276.538 112.297 276.544 114.616 275.622 116.841 273.976 118.475Z" fill="#FFFFFF" fill-rule="nonzero" fill-opacity="1"/><path d="M242.031 131.906C242.031 128.334 239.135 125.438 235.562 125.438 231.99 125.438 229.094 128.334 229.094 131.906 229.094 135.479 231.99 138.375 235.562 138.375 239.135 138.375 242.031 135.479 242.031 131.906ZM233.406 131.906C233.406 130.715 234.372 129.75 235.562 129.75 236.753 129.75 237.719 130.715 237.719 131.906 237.719 133.097 236.753 134.062 235.562 134.062 234.372 134.062 233.406 133.097 233.406 131.906Z" fill="#FFFFFF" fill-rule="nonzero" fill-opacity="1"/><path d="M204.914 172.194 202.542 172.985 203.904 177.082 206.276 176.288C211.29 174.626 216.706 174.626 221.719 176.288L224.091 177.082 225.454 172.985 223.082 172.194C217.184 170.237 210.812 170.237 204.914 172.194Z" fill="#FFFFFF" fill-rule="nonzero" fill-opacity="1"/><path d="M170.875 168.562 175.188 168.562 175.188 172.875 170.875 172.875Z" fill="#FFFFFF" fill-rule="nonzero" fill-opacity="1"/><path d="M179.5 172.875 183.812 172.875 183.812 177.188 179.5 177.188Z" fill="#FFFFFF" fill-rule="nonzero" fill-opacity="1"/><path d="M173.031 179.344 177.344 179.344 177.344 183.656 173.031 183.656Z" fill="#FFFFFF" fill-rule="nonzero" fill-opacity="1"/><path d="M252.812 168.562 257.125 168.562 257.125 172.875 252.812 172.875Z" fill="#FFFFFF" fill-rule="nonzero" fill-opacity="1"/><path d="M244.188 172.875 248.5 172.875 248.5 177.188 244.188 177.188Z" fill="#FFFFFF" fill-rule="nonzero" fill-opacity="1"/><path d="M250.656 179.344 254.969 179.344 254.969 183.656 250.656 183.656Z" fill="#FFFFFF" fill-rule="nonzero" fill-opacity="1"/><path d="M181.656 159.938 181.656 166.406 185.969 166.406 185.969 159.938C185.984 153.833 188.856 148.087 193.731 144.412L191.144 140.963C185.186 145.454 181.674 152.476 181.656 159.938Z" fill="#FFFFFF" fill-rule="nonzero" fill-opacity="1"/><path d="M246.344 159.938C246.326 152.476 242.814 145.454 236.856 140.963L234.269 144.412C239.144 148.087 242.016 153.833 242.031 159.938L242.031 166.406 246.344 166.406Z" fill="#FFFFFF" fill-rule="nonzero" fill-opacity="1"/><path d="M214 113.934C211.033 111.597 207.364 110.332 203.587 110.344L203.219 110.344 203.219 114.656 203.587 114.656C206.923 114.646 210.123 115.972 212.476 118.337 213.318 119.179 214.682 119.179 215.524 118.337 217.876 115.972 221.077 114.646 224.413 114.656L224.781 114.656 224.781 110.344 224.413 110.344C220.636 110.332 216.967 111.597 214 113.934Z" fill="#FFFFFF" fill-rule="nonzero" fill-opacity="1"/></g></g></g></g></g></svg>
